<svg width="24" height="24" viewBox="0 0 24 24" fill="none" xmlns="http://www.w3.org/2000/svg">
<path d="M18 5V19M7 10.5713V13.4287C7 15.2557 7 16.1693 7.38355 16.6958C7.71806 17.1549 8.23174 17.4496 8.79688 17.5073C9.44484 17.5733 10.2343 17.113 11.8125 16.1924L14.2617 14.7637L14.2701 14.7588C15.8216 13.8537 16.5979 13.4009 16.8595 12.8105C17.0881 12.2946 17.0881 11.7062 16.8595 11.1902C16.5974 10.5988 15.8188 10.1446 14.2617 9.2363L11.8125 7.80762C10.2343 6.88702 9.44484 6.42651 8.79688 6.49256C8.23174 6.55017 7.71806 6.84556 7.38355 7.30469C7 7.83111 7 8.74424 7 10.5713Z" stroke="#28282E" stroke-width="1.5" stroke-linecap="round" stroke-linejoin="round"/>
</svg>
