<svg width="24" height="24" viewBox="0 0 24 24" fill="none" xmlns="http://www.w3.org/2000/svg">
<path d="M14.5554 6.94441V17.0553C14.5554 17.4167 14.5554 17.5974 14.5853 17.7477C14.708 18.3647 15.19 18.8474 15.8071 18.9701C15.9574 19 16.1381 19 16.4995 19C16.8608 19 17.0422 19 17.1925 18.9701C17.8096 18.8474 18.2918 18.3647 18.4146 17.7477C18.4442 17.5987 18.4442 17.4199 18.4442 17.0648V6.93489C18.4442 6.57983 18.4442 6.40065 18.4146 6.25171C18.2918 5.63465 17.8092 5.15263 17.1921 5.02989C17.0419 5 16.8612 5 16.4998 5C16.1384 5 15.9574 5 15.8071 5.02989C15.19 5.15263 14.708 5.63465 14.5853 6.25171C14.5554 6.40197 14.5554 6.58302 14.5554 6.94441Z" stroke="#28282E" stroke-width="1.5" stroke-linecap="round" stroke-linejoin="round"/>
<path d="M6 6.94441V17.0553C6 17.4167 6 17.5974 6.02989 17.7477C6.15263 18.3647 6.63465 18.8474 7.25171 18.9701C7.40197 19 7.58267 19 7.94406 19C8.30545 19 8.48684 19 8.6371 18.9701C9.25416 18.8474 9.73645 18.3647 9.85919 17.7477C9.88882 17.5987 9.88882 17.4199 9.88881 17.0648V6.93489C9.88882 6.57983 9.88882 6.40065 9.85919 6.25171C9.73645 5.63465 9.25382 5.15263 8.63676 5.02989C8.48649 5 8.3058 5 7.94441 5C7.58302 5 7.40197 5 7.25171 5.02989C6.63465 5.15263 6.15263 5.63465 6.02989 6.25171C6 6.40197 6 6.58302 6 6.94441Z" stroke="#28282E" stroke-width="1.5" stroke-linecap="round" stroke-linejoin="round"/>
</svg>
