<svg width="159" height="32" viewBox="0 0 159 32" fill="none" xmlns="http://www.w3.org/2000/svg">
<mask id="mask0_91_20" style="mask-type:luminance" maskUnits="userSpaceOnUse" x="7" y="7" width="18" height="18">
<path d="M11.1461 9.31887C7.4563 11.9996 6.63835 17.164 9.31913 20.8538C11.9999 24.5435 17.1642 25.3615 20.854 22.6807C24.5438 19.9999 25.3617 14.8356 22.681 11.1458C20.0002 7.45605 14.8358 6.6381 11.1461 9.31887Z" fill="white"/>
</mask>
<g mask="url(#mask0_91_20)">
<path d="M11.1461 9.31887C7.4563 11.9996 6.63835 17.164 9.31913 20.8538C11.9999 24.5435 17.1642 25.3615 20.854 22.6807C24.5438 19.9999 25.3617 14.8356 22.681 11.1458C20.0002 7.45605 14.8358 6.6381 11.1461 9.31887Z" fill="#FF2E63"/>
<g filter="url(#filter0_f_91_20)">
<path d="M18.5052 14.1795C14.6516 8.87551 7.22784 7.6997 1.9238 11.5533C-3.38024 15.4069 -4.55605 22.8307 -0.702434 28.1347C3.15118 33.4388 10.5749 34.6146 15.879 30.7609C21.183 26.9073 22.3588 19.4836 18.5052 14.1795Z" fill="#FC9D0E"/>
</g>
<path fill-rule="evenodd" clip-rule="evenodd" d="M14.8392 9.25227C14.8942 9.0661 14.7407 8.88019 14.5505 8.91901C13.5699 9.11916 12.6153 9.52732 11.7528 10.1539C8.52423 12.4997 7.80852 17.0184 10.1542 20.247C12.4999 23.4755 17.0187 24.1912 20.2472 21.8456C21.1097 21.2189 21.7929 20.4371 22.2862 19.5663C22.382 19.3975 22.2526 19.194 22.0585 19.1888C19.7374 19.1257 17.4703 18.0235 16 15.9998C14.5297 13.9761 14.182 11.4793 14.8392 9.25227Z" fill="url(#paint0_linear_91_20)"/>
</g>
<path d="M31.35 16C31.35 24.4776 24.4776 31.35 16 31.35C7.52243 31.35 0.65 24.4776 0.65 16C0.65 7.52243 7.52243 0.65 16 0.65C24.4776 0.65 31.35 7.52243 31.35 16Z" stroke="#CBCBD9" stroke-width="1.3"/>
<path d="M44.3242 14.7617H51.7305V17.1992H44.3242V24.5H41.4648V7.34375H53.4648V9.76953H44.3242V14.7617ZM59.6992 24.8633C57.8008 24.8633 56.2969 24.2695 55.1875 23.082C54.0859 21.8867 53.5352 20.3203 53.5352 18.3828C53.5352 16.4453 54.0859 14.8828 55.1875 13.6953C56.2969 12.5 57.8008 11.9023 59.6992 11.9023C61.5977 11.9023 63.1016 12.5 64.2109 13.6953C65.3203 14.8828 65.875 16.4453 65.875 18.3828C65.875 20.3203 65.3203 21.8867 64.2109 23.082C63.1016 24.2695 61.5977 24.8633 59.6992 24.8633ZM59.6992 22.8008C60.8633 22.8008 61.7617 22.3906 62.3945 21.5703C63.0352 20.75 63.3555 19.6875 63.3555 18.3828C63.3555 17.0703 63.0352 16.0078 62.3945 15.1953C61.7617 14.375 60.8633 13.9648 59.6992 13.9648C58.5352 13.9648 57.6367 14.3711 57.0039 15.1836C56.3711 15.9961 56.0547 17.0625 56.0547 18.3828C56.0547 19.6875 56.3711 20.75 57.0039 21.5703C57.6367 22.3906 58.5352 22.8008 59.6992 22.8008ZM76.0586 16.7188C76.0352 16.3828 75.9609 16.0625 75.8359 15.7578C75.7188 15.4531 75.543 15.1641 75.3086 14.8906C75.082 14.6094 74.7695 14.3867 74.3711 14.2227C73.9805 14.0508 73.5273 13.9648 73.0117 13.9648C72.418 13.9648 71.8867 14.0859 71.418 14.3281C70.957 14.5703 70.5898 14.8984 70.3164 15.3125C70.043 15.7266 69.8359 16.1953 69.6953 16.7188C69.5547 17.2344 69.4844 17.7891 69.4844 18.3828C69.4844 18.9766 69.5508 19.5352 69.6836 20.0586C69.8242 20.5742 70.0312 21.0391 70.3047 21.4531C70.5781 21.8672 70.9453 22.1953 71.4062 22.4375C71.875 22.6797 72.4102 22.8008 73.0117 22.8008C73.5273 22.8008 73.9805 22.7188 74.3711 22.5547C74.7695 22.3906 75.082 22.168 75.3086 21.8867C75.543 21.5977 75.7188 21.293 75.8359 20.9727C75.9609 20.6523 76.0352 20.3086 76.0586 19.9414H78.5781C78.4844 21.3789 77.9258 22.5586 76.9023 23.4805C75.8789 24.4023 74.582 24.8633 73.0117 24.8633C71.1836 24.8633 69.7188 24.2656 68.6172 23.0703C67.5156 21.875 66.9648 20.3125 66.9648 18.3828C66.9648 16.4531 67.5156 14.8906 68.6172 13.6953C69.7188 12.5 71.1758 11.9023 72.9883 11.9023C74.5508 11.9023 75.832 12.3516 76.832 13.25C77.832 14.1406 78.4141 15.2969 78.5781 16.7188H76.0586ZM88.3164 12.2305H90.8359V24.5H88.3164V22.918H88.2578C87.8906 23.4648 87.3672 23.9219 86.6875 24.2891C86.0156 24.6562 85.1953 24.8398 84.2266 24.8398C83.0234 24.8398 82.043 24.4883 81.2852 23.7852C80.5273 23.082 80.1484 22.0547 80.1484 20.7031V12.2305H82.6914V19.9883C82.6914 21.793 83.5 22.6953 85.1172 22.6953C86.0938 22.6953 86.8711 22.4258 87.4492 21.8867C88.0273 21.3398 88.3164 20.6094 88.3164 19.6953V12.2305ZM98.5352 17.082C99.793 17.3789 100.672 17.6406 101.172 17.8672C102.32 18.3906 102.988 19.2031 103.176 20.3047C103.215 20.5391 103.234 20.7852 103.234 21.043C103.234 22.2148 102.777 23.1445 101.863 23.832C100.949 24.5195 99.7422 24.8633 98.2422 24.8633C96.3438 24.8633 94.9219 24.4648 93.9766 23.668C93.0312 22.8711 92.5273 21.7891 92.4648 20.4219H94.9141C94.9453 20.7891 95.0117 21.1055 95.1133 21.3711C95.2227 21.6367 95.3906 21.8906 95.6172 22.1328C95.8516 22.375 96.1836 22.5586 96.6133 22.6836C97.043 22.8086 97.5703 22.8711 98.1953 22.8711C99.0078 22.8711 99.625 22.707 100.047 22.3789C100.477 22.0508 100.691 21.668 100.691 21.2305C100.691 21.0664 100.676 20.9141 100.645 20.7734C100.613 20.6328 100.559 20.5078 100.48 20.3984C100.402 20.2891 100.324 20.1914 100.246 20.1055C100.176 20.0195 100.066 19.9414 99.918 19.8711C99.7773 19.8008 99.6523 19.7422 99.543 19.6953C99.4336 19.6406 99.2773 19.5859 99.0742 19.5312C98.8711 19.4766 98.7031 19.4336 98.5703 19.4023C98.4453 19.3711 98.2578 19.3281 98.0078 19.2734C97.7656 19.2188 97.5742 19.1758 97.4336 19.1445C96.3164 18.8789 95.6172 18.6992 95.3359 18.6055C94.1094 18.1914 93.3398 17.543 93.0273 16.6602C92.9102 16.3242 92.8516 15.9453 92.8516 15.5234C92.8516 14.4844 93.2852 13.6211 94.1523 12.9336C95.0195 12.2461 96.1992 11.9023 97.6914 11.9023C99.2773 11.9023 100.5 12.2734 101.359 13.0156C102.227 13.7578 102.703 14.6992 102.789 15.8398H100.34C100.293 15.5664 100.223 15.3281 100.129 15.125C100.035 14.9141 99.8945 14.7109 99.707 14.5156C99.5195 14.3125 99.2578 14.1602 98.9219 14.0586C98.5859 13.9492 98.1836 13.8945 97.7148 13.8945C96.9727 13.8945 96.3984 14.0234 95.9922 14.2812C95.5938 14.5391 95.3945 14.8906 95.3945 15.3359C95.3945 15.5078 95.418 15.6641 95.4648 15.8047C95.5117 15.9375 95.5938 16.0547 95.7109 16.1562C95.8359 16.2578 95.9492 16.3438 96.0508 16.4141C96.1602 16.4844 96.332 16.5547 96.5664 16.625C96.8008 16.6875 96.9844 16.7383 97.1172 16.7773C97.2578 16.8086 97.4883 16.8594 97.8086 16.9297C98.1289 16.9922 98.3711 17.043 98.5352 17.082ZM112.621 14.7617H120.027V17.1992H112.621V24.5H109.762V7.34375H121.762V9.76953H112.621V14.7617ZM123.602 7.34375H126.156V24.5H123.602V7.34375ZM134.113 24.8633C132.215 24.8633 130.711 24.2695 129.602 23.082C128.5 21.8867 127.949 20.3203 127.949 18.3828C127.949 16.4453 128.5 14.8828 129.602 13.6953C130.711 12.5 132.215 11.9023 134.113 11.9023C136.012 11.9023 137.516 12.5 138.625 13.6953C139.734 14.8828 140.289 16.4453 140.289 18.3828C140.289 20.3203 139.734 21.8867 138.625 23.082C137.516 24.2695 136.012 24.8633 134.113 24.8633ZM134.113 22.8008C135.277 22.8008 136.176 22.3906 136.809 21.5703C137.449 20.75 137.77 19.6875 137.77 18.3828C137.77 17.0703 137.449 16.0078 136.809 15.1953C136.176 14.375 135.277 13.9648 134.113 13.9648C132.949 13.9648 132.051 14.3711 131.418 15.1836C130.785 15.9961 130.469 17.0625 130.469 18.3828C130.469 19.6875 130.785 20.75 131.418 21.5703C132.051 22.3906 132.949 22.8008 134.113 22.8008ZM140.547 12.2305H143.207L145.703 21.5469H145.762L148.258 12.2305H150.719L153.238 21.5469H153.297L155.77 12.2305H158.43L154.68 24.5H152.137L149.5 15.1367H149.453L146.84 24.5H144.32L140.547 12.2305Z" fill="#28282E"/>
<defs>
<filter id="filter0_f_91_20" x="-6.97046" y="5.2854" width="31.7437" height="31.7437" filterUnits="userSpaceOnUse" color-interpolation-filters="sRGB">
<feFlood flood-opacity="0" result="BackgroundImageFix"/>
<feBlend mode="normal" in="SourceGraphic" in2="BackgroundImageFix" result="shape"/>
<feGaussianBlur stdDeviation="2" result="effect1_foregroundBlur_91_20"/>
</filter>
<linearGradient id="paint0_linear_91_20" x1="20.9329" y1="2.26982" x2="31.0689" y2="16.2208" gradientUnits="userSpaceOnUse">
<stop offset="0.317708" stop-color="white"/>
<stop offset="0.598958" stop-color="#F4FA4C"/>
<stop offset="1" stop-color="#FE845F"/>
</linearGradient>
</defs>
</svg>
